<svg width="24" height="24" viewBox="0 0 24 24" fill="none" xmlns="http://www.w3.org/2000/svg">
<path d="M8.68359 0.695312C10.6556 0.303119 12.7 0.50399 14.5576 1.27344C16.4153 2.04293 18.003 3.34669 19.1201 5.01855C20.2372 6.69041 20.833 8.6563 20.833 10.667L20.8252 11.0898C20.7393 13.1966 19.9928 15.2275 18.6865 16.8916L18.4121 17.2402L18.7266 17.5537L23.2607 22.0742L23.2617 22.0752C23.3397 22.1526 23.4011 22.2453 23.4434 22.3467C23.4856 22.4481 23.5078 22.5571 23.5078 22.667C23.5078 22.7769 23.4856 22.8859 23.4434 22.9873C23.4011 23.0888 23.3398 23.1814 23.2617 23.2588H23.2607L23.2588 23.2617C23.1814 23.3398 23.0888 23.4011 22.9873 23.4434C22.8859 23.4856 22.7769 23.5078 22.667 23.5078C22.5571 23.5078 22.4481 23.4856 22.3467 23.4434C22.2453 23.4011 22.1526 23.3397 22.0752 23.2617L22.0742 23.2607L17.5537 18.7266L17.2402 18.4121L16.8916 18.6865C15.1164 20.0799 12.9237 20.8358 10.667 20.833C8.6563 20.833 6.69041 20.2372 5.01855 19.1201C3.34669 18.003 2.04293 16.4153 1.27344 14.5576C0.50399 12.7 0.303119 10.6556 0.695312 8.68359C1.0876 6.71145 2.05571 4.89937 3.47754 3.47754C4.89937 2.05571 6.71145 1.0876 8.68359 0.695312ZM12.3252 2.33008C10.6764 2.00212 8.96717 2.17022 7.41406 2.81348C5.86096 3.45679 4.53359 4.54661 3.59961 5.94434C2.66562 7.34215 2.16699 8.98585 2.16699 10.667C2.16708 12.9211 3.06237 15.0828 4.65625 16.6768C6.25031 18.2708 8.41265 19.167 10.667 19.167C12.3479 19.1669 13.991 18.6682 15.3887 17.7344C16.7864 16.8005 17.8762 15.4729 18.5195 13.9199C19.1628 12.3668 19.3308 10.6575 19.0029 9.00879C18.675 7.35995 17.8655 5.845 16.6768 4.65625C15.4881 3.46766 13.9739 2.65807 12.3252 2.33008Z" fill="#264065" stroke="black"/>
</svg>
